{
	"asset":{
		"generator":"Khronos glTF Blender I/O v4.2.57",
		"version":"2.0"
	},
	"scene":0,
	"scenes":[
		{
			"name":"Scene",
			"nodes":[
				0,
				1,
				2
			]
		}
	],
	"nodes":[
		{
			"mesh":0,
			"name":"Cylinder",
			"translation":[
				0,
				-0.6899999976158142,
				0
			]
		},
		{
			"mesh":1,
			"name":"Cylinder.004",
			"rotation":[
				0.4427928030490875,
				0.34236735105514526,
				-0.5202387571334839,
				0.6450355052947998
			],
			"translation":[
				0.9084598422050476,
				-0.1154225617647171,
				0.41423580050468445
			]
		},
		{
			"mesh":2,
			"name":"Cylinder.001",
			"rotation":[
				-0.454572468996048,
				-0.31447654962539673,
				-0.529199481010437,
				0.643751859664917
			],
			"translation":[
				0.9051133990287781,
				-0.12087660282850266,
				-0.38327810168266296
			]
		}
	],
	"materials":[
		{
			"doubleSided":true,
			"name":"Material",
			"normalTexture":{
				"index":0
			},
			"pbrMetallicRoughness":{
				"baseColorTexture":{
					"index":1
				},
				"metallicRoughnessTexture":{
					"index":2
				}
			}
		},
		{
			"doubleSided":true,
			"name":"Button",
			"normalTexture":{
				"index":3
			},
			"pbrMetallicRoughness":{
				"baseColorTexture":{
					"index":4
				},
				"metallicFactor":0,
				"metallicRoughnessTexture":{
					"index":5
				}
			}
		}
	],
	"meshes":[
		{
			"name":"Cylinder",
			"primitives":[
				{
					"attributes":{
						"POSITION":0,
						"NORMAL":1,
						"TEXCOORD_0":2
					},
					"indices":3,
					"material":0
				}
			]
		},
		{
			"name":"Cylinder.006",
			"primitives":[
				{
					"attributes":{
						"POSITION":4,
						"NORMAL":5,
						"TEXCOORD_0":6
					},
					"indices":7,
					"material":1
				}
			]
		},
		{
			"name":"Cylinder.001",
			"primitives":[
				{
					"attributes":{
						"POSITION":8,
						"NORMAL":9,
						"TEXCOORD_0":10
					},
					"indices":11,
					"material":1
				}
			]
		}
	],
	"textures":[
		{
			"sampler":0,
			"source":0
		},
		{
			"sampler":0,
			"source":1
		},
		{
			"sampler":0,
			"source":2
		},
		{
			"sampler":0,
			"source":3
		},
		{
			"sampler":0,
			"source":4
		},
		{
			"sampler":0,
			"source":5
		}
	],
	"images":[
		{
			"mimeType":"image/png",
			"name":"Redotplush_nor",
			"uri":"Redotplush_nor.png"
		},
		{
			"mimeType":"image/png",
			"name":"Redotplush_base",
			"uri":"Redotplush_base.png"
		},
		{
			"mimeType":"image/png",
			"name":"Redotplush_metal-Redotplush_rough",
			"uri":"Redotplush_metal-Redotplush_rough.png"
		},
		{
			"mimeType":"image/png",
			"name":"Plastic011_2K-PNG_NormalGL",
			"uri":"Plastic011_2K-PNG_NormalGL.png"
		},
		{
			"mimeType":"image/png",
			"name":"Plastic011_2K-PNG_Color",
			"uri":"Plastic011_2K-PNG_Color.png"
		},
		{
			"mimeType":"image/png",
			"name":"Plastic011_2K-PNG_Roughness",
			"uri":"Plastic011_2K-PNG_Roughness.png"
		}
	],
	"accessors":[
		{
			"bufferView":0,
			"componentType":5126,
			"count":1641,
			"max":[
				0.9907321929931641,
				1.7078434228897095,
				0.9995051622390747
			],
			"min":[
				-0.9907321929931641,
				-0.30949756503105164,
				-1.038569688796997
			],
			"type":"VEC3"
		},
		{
			"bufferView":1,
			"componentType":5126,
			"count":1641,
			"type":"VEC3"
		},
		{
			"bufferView":2,
			"componentType":5126,
			"count":1641,
			"type":"VEC2"
		},
		{
			"bufferView":3,
			"componentType":5123,
			"count":7062,
			"type":"SCALAR"
		},
		{
			"bufferView":4,
			"componentType":5126,
			"count":176,
			"max":[
				0.2017863392829895,
				0.025223353877663612,
				0.20178639888763428
			],
			"min":[
				-0.2017863392829895,
				-0.025223348289728165,
				-1.036541630305976e-09
			],
			"type":"VEC3"
		},
		{
			"bufferView":5,
			"componentType":5126,
			"count":176,
			"type":"VEC3"
		},
		{
			"bufferView":6,
			"componentType":5126,
			"count":176,
			"type":"VEC2"
		},
		{
			"bufferView":7,
			"componentType":5123,
			"count":408,
			"type":"SCALAR"
		},
		{
			"bufferView":8,
			"componentType":5126,
			"count":176,
			"max":[
				0.2017863392829895,
				0.025223344564437866,
				1.243728897648566e-09
			],
			"min":[
				-0.2017863392829895,
				-0.025223348289728165,
				-0.20178638398647308
			],
			"type":"VEC3"
		},
		{
			"bufferView":9,
			"componentType":5126,
			"count":176,
			"type":"VEC3"
		},
		{
			"bufferView":10,
			"componentType":5126,
			"count":176,
			"type":"VEC2"
		},
		{
			"bufferView":11,
			"componentType":5123,
			"count":408,
			"type":"SCALAR"
		}
	],
	"bufferViews":[
		{
			"buffer":0,
			"byteLength":19692,
			"byteOffset":0,
			"target":34962
		},
		{
			"buffer":0,
			"byteLength":19692,
			"byteOffset":19692,
			"target":34962
		},
		{
			"buffer":0,
			"byteLength":13128,
			"byteOffset":39384,
			"target":34962
		},
		{
			"buffer":0,
			"byteLength":14124,
			"byteOffset":52512,
			"target":34963
		},
		{
			"buffer":0,
			"byteLength":2112,
			"byteOffset":66636,
			"target":34962
		},
		{
			"buffer":0,
			"byteLength":2112,
			"byteOffset":68748,
			"target":34962
		},
		{
			"buffer":0,
			"byteLength":1408,
			"byteOffset":70860,
			"target":34962
		},
		{
			"buffer":0,
			"byteLength":816,
			"byteOffset":72268,
			"target":34963
		},
		{
			"buffer":0,
			"byteLength":2112,
			"byteOffset":73084,
			"target":34962
		},
		{
			"buffer":0,
			"byteLength":2112,
			"byteOffset":75196,
			"target":34962
		},
		{
			"buffer":0,
			"byteLength":1408,
			"byteOffset":77308,
			"target":34962
		},
		{
			"buffer":0,
			"byteLength":816,
			"byteOffset":78716,
			"target":34963
		}
	],
	"samplers":[
		{
			"magFilter":9729,
			"minFilter":9987
		}
	],
	"buffers":[
		{
			"byteLength":79532,
			"uri":"Redotplush.bin"
		}
	]
}
